<?xml version="1.0" standalone="no"?>
<!DOCTYPE svg PUBLIC "-//W3C//DTD SVG 20010904//EN"
 "http://www.w3.org/TR/2001/REC-SVG-20010904/DTD/svg10.dtd">
<svg version="1.0" xmlns="http://www.w3.org/2000/svg"
 width="976.000000pt" height="976.000000pt" viewBox="0 0 976.000000 976.000000"
 preserveAspectRatio="xMidYMid meet">

<g transform="translate(0.000000,976.000000) scale(0.100000,-0.100000)"
fill="#000000" stroke="none">
<path d="M4375 7824 c-230 -31 -389 -130 -495 -307 -38 -63 -50 -76 -77 -82
-52 -9 -183 -80 -248 -132 -118 -96 -212 -238 -266 -403 -25 -78 -32 -118 -36
-218 l-6 -123 -41 -28 c-100 -70 -202 -206 -251 -335 -46 -122 -60 -202 -60
-346 0 -178 28 -278 109 -383 l36 -48 -11 -89 c-19 -160 15 -331 94 -472 123
-218 395 -416 597 -435 l55 -6 38 -64 38 -64 -40 -45 c-22 -25 -79 -122 -127
-217 -217 -427 -432 -740 -647 -944 -84 -79 -226 -183 -251 -183 -7 0 -22 22
-35 49 -28 63 -86 123 -150 156 -58 29 -179 48 -231 37 -34 -8 -35 -10 -35
-52 0 -49 -4 -46 100 -69 68 -15 115 -65 115 -120 0 -50 -28 -85 -85 -106
-114 -44 -198 43 -166 171 11 43 10 48 -10 70 -12 13 -30 24 -40 24 -36 0
-104 -119 -115 -202 -8 -60 18 -124 72 -179 62 -63 54 -79 -36 -79 -38 0 -80
4 -94 10 -47 18 -57 5 -54 -69 l3 -66 62 -20 c51 -16 63 -24 63 -41 0 -16 -8
-23 -31 -28 l-32 -6 7 -52 c4 -28 11 -59 17 -69 30 -56 401 -25 610 51 283
103 536 344 772 736 71 117 196 371 242 492 16 39 30 71 31 69 2 -2 -5 -73
-16 -158 -40 -328 -87 -946 -73 -959 8 -8 236 -97 383 -150 125 -45 415 -134
572 -175 l137 -36 138 32 c239 54 531 138 746 214 152 54 390 145 398 154 15
14 -26 699 -61 1026 -11 98 -17 181 -15 184 3 2 5 -1 5 -8 0 -47 174 -440 270
-611 250 -443 524 -711 836 -818 152 -52 449 -87 549 -65 39 9 40 10 54 72 17
73 10 85 -50 76 -26 -5 -39 -2 -49 10 -18 22 -4 33 59 45 29 5 68 17 87 26
l35 17 -3 66 -3 66 -30 -3 c-154 -14 -185 -14 -191 2 -4 11 8 32 36 62 51 56
70 99 70 162 0 61 -20 118 -60 177 -35 51 -56 56 -90 20 -22 -23 -23 -28 -12
-77 14 -62 8 -91 -25 -135 -28 -38 -72 -49 -130 -34 -49 13 -103 70 -103 108
0 67 81 132 166 133 22 0 45 5 52 12 13 13 16 67 4 84 -12 18 -83 24 -152 13
-124 -19 -225 -93 -267 -194 -10 -25 -23 -45 -28 -45 -32 0 -154 89 -260 192
-235 226 -416 492 -656 959 -95 185 -136 239 -183 239 l-24 0 34 68 c19 37 34
72 34 78 0 6 24 14 53 17 121 15 239 77 322 169 51 57 107 153 125 213 9 30
24 48 60 73 57 39 149 131 186 185 137 203 155 473 49 748 -18 47 -45 109 -60
139 l-27 53 25 76 c39 118 50 201 44 331 -15 314 -169 560 -437 696 -30 15
-95 41 -145 58 l-89 31 -8 42 c-19 113 -96 251 -189 339 -144 135 -343 201
-577 192 -143 -6 -250 -38 -345 -101 l-64 -43 -44 39 c-53 47 -139 92 -213
111 -59 16 -193 27 -241 20z m226 -261 c25 -11 61 -34 81 -52 61 -53 68 -80
68 -251 l0 -153 -55 6 c-70 7 -131 42 -185 106 -23 27 -55 55 -71 61 -64 27
-144 -21 -156 -93 -7 -47 27 -107 102 -175 88 -81 210 -131 316 -132 l46 0 6
-122 c4 -66 7 -195 7 -286 l0 -164 -22 6 c-324 95 -621 -5 -791 -264 -27 -41
-52 -75 -55 -74 -4 0 -34 13 -67 28 -33 15 -88 35 -122 44 l-63 17 -11 57
c-15 74 -41 116 -85 134 -66 27 -135 -7 -154 -76 -7 -27 -7 -46 1 -67 28 -72
3 -140 -66 -183 -43 -26 -65 -66 -65 -116 0 -28 8 -44 34 -70 59 -59 135 -43
227 47 l50 49 52 -11 c72 -15 165 -61 218 -107 73 -64 109 -75 163 -50 34 15
53 45 76 121 74 240 297 369 538 312 34 -8 81 -24 102 -35 l40 -21 -2 -307 -3
-307 -55 4 c-68 4 -155 31 -214 65 l-44 26 14 46 c18 61 18 167 0 202 -25 48
-88 70 -140 48 -44 -18 -76 -69 -76 -120 0 -133 -96 -226 -249 -242 -114 -12
-201 26 -270 119 -44 61 -84 82 -134 73 -62 -12 -105 -81 -88 -141 12 -46 62
-115 116 -163 l45 -40 -26 -16 c-14 -10 -38 -38 -55 -64 -40 -63 -40 -119 0
-164 26 -29 35 -33 81 -33 49 0 53 2 100 53 60 65 156 112 297 147 115 28 159
45 214 82 l38 25 30 -22 c81 -57 224 -105 349 -116 l72 -7 0 -370 c0 -262 -4
-382 -12 -411 -17 -56 -90 -128 -148 -145 -74 -22 -150 -24 -239 -7 -173 32
-310 126 -376 258 -60 121 -44 220 44 272 l34 19 46 -25 c25 -14 63 -31 84
-38 33 -10 37 -15 37 -44 0 -52 29 -148 57 -189 45 -64 99 -82 154 -50 51 31
63 110 22 155 -9 10 -18 39 -21 66 l-4 47 56 24 c70 29 161 110 176 156 22 65
-25 139 -90 145 -54 5 -70 -2 -121 -47 -52 -48 -53 -48 -124 -48 -65 0 -77 3
-126 35 -50 33 -60 35 -134 35 -66 0 -90 -5 -135 -26 -113 -54 -204 -170 -217
-278 -8 -73 -13 -76 -65 -53 -106 46 -256 175 -319 273 -72 113 -97 276 -65
423 10 42 15 90 11 106 -4 16 -28 51 -54 78 -109 112 -137 277 -80 482 44 159
129 272 249 333 102 52 117 86 91 212 -36 169 62 415 214 537 32 26 62 48 66
48 4 0 10 -21 14 -47 14 -100 71 -247 127 -326 l20 -28 -29 -22 c-76 -59 -143
-156 -173 -251 -34 -106 69 -193 168 -142 28 15 36 27 70 108 26 60 98 132
127 124 11 -3 52 -16 90 -30 85 -31 226 -36 275 -11 76 40 78 160 2 199 -15 7
-65 16 -112 18 -53 3 -97 11 -118 22 -71 37 -188 227 -212 343 -37 176 93 383
279 445 77 25 236 21 302 -9z m853 -8 c229 -48 376 -215 376 -426 0 -68 37
-114 100 -124 283 -47 465 -185 534 -405 64 -203 35 -414 -74 -533 -58 -64
-142 -111 -236 -133 -76 -17 -100 -33 -120 -81 -25 -59 11 -134 72 -149 62
-16 212 27 318 91 32 19 62 35 66 35 10 0 46 -86 66 -157 8 -32 18 -99 21
-149 9 -154 -26 -253 -130 -361 -72 -75 -102 -87 -222 -85 -49 0 -102 -4 -116
-9 -38 -15 -64 -67 -55 -112 9 -47 45 -75 107 -83 l48 -6 -15 -29 c-26 -51
-74 -98 -127 -123 -94 -45 -95 -44 -122 61 -42 165 -163 359 -245 393 -70 29
-150 -29 -150 -110 0 -35 12 -56 72 -131 71 -90 127 -269 115 -372 -22 -181
-201 -297 -438 -284 -147 8 -271 84 -298 183 -16 58 -15 434 2 434 6 0 36 -11
65 -25 73 -34 143 -107 181 -191 17 -38 37 -80 44 -94 7 -14 30 -34 51 -44 36
-17 43 -18 79 -5 79 28 98 93 57 201 -66 177 -214 316 -405 380 l-80 27 -3
166 c-1 91 0 165 3 165 3 0 24 -9 46 -21 52 -26 158 -49 229 -49 105 0 249 49
296 101 15 17 18 15 59 -34 105 -129 246 -187 424 -174 180 12 281 97 238 200
-29 67 -94 81 -197 42 -56 -21 -152 -15 -209 15 -42 21 -112 100 -139 157 -15
32 -15 34 14 70 17 21 58 53 91 70 50 27 64 40 77 74 20 49 10 92 -28 128 -42
39 -87 38 -170 -3 -92 -45 -156 -112 -227 -239 -28 -51 -61 -103 -73 -115 -96
-106 -340 -60 -413 78 l-24 44 3 466 3 467 30 48 c95 154 256 152 397 -5 73
-82 103 -98 157 -82 46 14 70 40 81 85 11 49 -16 104 -86 177 l-57 60 21 48
c30 70 46 183 32 226 -46 140 -230 93 -230 -59 0 -20 -7 -51 -14 -70 l-15 -35
-93 0 c-86 -1 -131 -10 -210 -45 -17 -7 -18 5 -18 166 l0 172 44 43 c41 39
120 74 196 87 56 9 159 6 224 -8z"/>
<path d="M5917 6749 c-16 -12 -33 -41 -42 -72 -24 -82 -56 -121 -127 -156 -79
-38 -189 -57 -247 -41 -50 13 -96 51 -121 100 -38 75 -104 99 -170 65 -33 -17
-60 -61 -60 -98 0 -37 55 -138 99 -181 l40 -39 -25 -37 c-64 -96 -94 -259 -59
-318 22 -37 53 -52 106 -52 57 0 109 51 109 107 0 84 39 157 102 189 16 8 74
24 128 34 54 10 127 30 163 44 35 14 66 26 70 26 3 0 27 -13 54 -30 122 -75
294 -74 347 2 25 36 20 83 -13 120 -29 32 -31 33 -103 30 -59 -2 -128 10 -128
23 0 2 14 32 30 67 50 107 40 197 -26 226 -40 19 -98 15 -127 -9z"/>
<path d="M6325 2576 c-27 -8 -130 -49 -227 -90 -330 -140 -700 -264 -1025
-344 -84 -20 -153 -40 -153 -43 0 -4 12 -9 28 -12 15 -2 90 -16 167 -31 77
-15 201 -36 275 -47 74 -11 152 -25 173 -31 50 -15 132 -89 149 -134 7 -20 19
-34 28 -34 23 0 361 98 555 160 88 29 192 68 230 88 75 39 152 109 180 162 23
45 31 138 15 185 -18 55 -91 129 -153 155 -65 29 -173 35 -242 16z"/>
<path d="M3265 2540 c-99 -14 -197 -85 -231 -166 -17 -41 -18 -113 -2 -167 21
-69 105 -149 211 -201 185 -91 953 -306 1430 -401 98 -19 195 -44 216 -55 60
-30 105 -91 134 -178 27 -82 57 -216 57 -255 0 -82 70 -196 143 -234 25 -13
257 -64 265 -58 10 8 172 830 172 872 0 92 -47 173 -125 219 -36 21 -79 31
-208 50 -581 87 -1121 241 -1698 485 -102 43 -206 81 -230 84 -24 4 -53 8 -64
9 -11 2 -43 0 -70 -4z"/>
<path d="M4103 1634 c6 -46 145 -721 153 -746 7 -22 -2 -22 119 1 120 23 147
33 194 71 55 43 88 111 101 209 14 106 54 260 80 312 23 45 28 41 -70 59 -158
30 -488 104 -564 127 -17 5 -18 1 -13 -33z"/>
</g>
</svg>
